<?xml version="1.0" encoding="utf-8"?>
<!-- Generator: Adobe Illustrator 27.3.1, SVG Export Plug-In . SVG Version: 6.00 Build 0)  -->
<svg version="1.1" id="Ebene_1" xmlns="http://www.w3.org/2000/svg" xmlns:xlink="http://www.w3.org/1999/xlink" x="0px" y="0px"
	 viewBox="0 0 471.6 182.3" style="enable-background:new 0 0 471.6 182.3;" xml:space="preserve">
<style type="text/css">
	.st0{clip-path:url(#SVGID_00000152226496618559773440000018249514463269771149_);}
</style>
<g>
	<g>
		<defs>
			<rect id="SVGID_1_" x="98.6" y="109.2" width="373" height="72.1"/>
		</defs>
		<clipPath id="SVGID_00000132046926717456328780000001802589547006306437_">
			<use xlink:href="#SVGID_1_"  style="overflow:visible;"/>
		</clipPath>
		<path style="clip-path:url(#SVGID_00000132046926717456328780000001802589547006306437_);" d="M445.8,111.6h4.5
			c4.3,0,7.1,5.2,7.2,10.2V165c0,13.2-7.2,4.6-41.8-52c-0.7-1-3.2-2.3-4.4-2.4c-1.1-0.1-12.9,0-22.8,0l1,1.1c1.6,0,8.3,0,9.8,0.3
			c4.5,0.9,8.1,3.7,9.5,6.6v49.7c0,5.9-2.8,10.9-7.2,10.9h-5.4l-1,1.1h28.1l-1-1.1h-4.2c-3.9,0-8.1-4.9-8.1-10.8v-47.5
			c5.5,9.2,30.6,48.7,31.8,50.4c2.7,4.1,6.5,8.9,12.8,8.9h4v-10.9v-47.4c0-5,4.2-10.2,8.1-10.2h3.9l1-1.1h-26.7L445.8,111.6z
			 M376,174.8c-10.7,7.6-30-3.7-38.1-15.6c-2.6-3.9-4.9-9.1-6.3-14.8H379C382.4,156,383.8,169.3,376,174.8 M390.1,143.3h-11.5h-36.4
			c-9,0-12.6-3.9-12.2-13.8c0.4-5.7,2.1-10.7,5.7-13.7c12.6-10.4,35.7-0.6,49.5,18.8v-24l-1,1.1v1.1c0,5.9-5.5,3.2-14.5-0.3
			c-0.9-0.4-1.9-0.7-2.7-1.1H367c-4-1.4-8.4-2-13-2c-21,0-31.5,15.2-31.5,34.8c0,19.8,13.5,37.2,34.5,37.2
			c18.3,0,29.6-11.2,32.5-26.8c1.3-5.6,1.5-10.1,5.2-10.1h1.6l1-1.1C397.2,143.3,390.1,143.3,390.1,143.3z M294.2,111.6
			c4.4,0,7.3,5.3,7.3,11.2v44.4c0,6.8-2.8,11.9-7.2,11.9h-4.5l-1,1.1H324l-1-1.1h-5.1c-3.9,0-7.1-4.9-7.2-11.8
			c-0.1-6.2,0-43.1,0-43.9c0-6.9,3.8-11.8,7.7-11.8h4.2l1-1.1h-34.8l1,1.1C289.7,111.6,294.2,111.6,294.2,111.6z M264.8,137.5
			c-15.3-4.2-19.1-5-19.1-12.3c0.2-7.1,4.7-15,15-15c10,0,15.1,4.1,18.4,7.7c2.8,3.1,5.1,9.1,5.1,23.1l1,1v-31.4l-1,1
			c0,8.5-4.7-2.3-23.4-2.3c-10,0-23.7,5.7-23.2,19.7c0.8,15.8,17.3,18.2,29.4,21.4c10.9,3.2,13.8,7.5,13.8,15.1
			c-0.2,8.1-7.8,15.1-18.2,15.1c-12.8,0-22.3-9.6-22.3-18.9l-1-1v19.6l1-1c0-11.5,3.5,2.1,22.3,2.1c10.1,0,26.3-4.8,26.3-19.7
			C288.8,146.2,277.2,140.4,264.8,137.5 M232,158.7c0,7.4-3.5,20.3-16.1,20.3h-4.6c-11.6,0-20.9-4.9-20.9-20.6
			c0.1-2.8,1.3-14.1,10.8-14.1h8.4c5,0,9.9,3.5,9.9,6.4v2.6l1,1v-20.9l-1,1v2.5c0,3.2-5.1,6.3-9.3,6.3h-19.7v-13.9
			c0-12.7,6.7-17.8,20.2-17.8h0.7h0.5c8.9,0,16.1,4.9,16.1,12.8l1,1v-15l-36.6,0.1h-23.2l1,1.1h4c5.5,0,7.6,5.5,7.5,12.2v43.5
			c0,6.8-2,11.9-6.4,11.9h-3.5l-1,1.1h62.1h0.2v-22.4L232,158.7z M157.9,172c-10.6,7.5-35.4,6.7-35.4-15.6V156
			c-0.1-12.2,0-31.7,0-34.2l0.2-10.2c10.8,0.2,25.1,7.3,32.1,17.2C163,140.4,168.8,164.3,157.9,172 M171.5,145.2
			c0-18.5-13.8-34.7-34.4-34.7h-5.6H98.6l1,1.1h2.5c4.4,0,11.1,3,11.1,14.7v40.9c-0.1,6.8-1.8,11.8-6.1,11.9h-4.5l-1,1.1h36.3
			C158.1,179.7,171.5,163.7,171.5,145.2"/>
	</g>
</g>
</svg>
